<svg width="81" height="81" viewBox="0 0 81 81" fill="none" xmlns="http://www.w3.org/2000/svg">
<path d="M40.25 0L43.6177 1.75704L47.2393 0.611488L50.2508 2.92663L54.0163 2.42737L56.58 5.23027L60.375 5.39248L62.413 8.59797L66.1222 9.41671L67.5726 12.9274L71.0833 14.3778L71.902 18.087L75.1075 20.125L75.2697 23.92L78.0726 26.4837L77.5734 30.2492L79.8885 33.2607L78.743 36.8823L80.5 40.25L78.743 43.6177L79.8885 47.2393L77.5734 50.2508L78.0726 54.0163L75.2697 56.58L75.1075 60.375L71.902 62.413L71.0833 66.1222L67.5726 67.5726L66.1222 71.0833L62.413 71.902L60.375 75.1075L56.58 75.2697L54.0163 78.0726L50.2508 77.5734L47.2393 79.8885L43.6177 78.743L40.25 80.5L36.8823 78.743L33.2607 79.8885L30.2492 77.5734L26.4837 78.0726L23.92 75.2697L20.125 75.1075L18.087 71.902L14.3778 71.0833L12.9274 67.5726L9.41671 66.1222L8.59797 62.413L5.39248 60.375L5.23027 56.58L2.42737 54.0163L2.92663 50.2508L0.611488 47.2393L1.75704 43.6177L0 40.25L1.75704 36.8823L0.611488 33.2607L2.92663 30.2492L2.42737 26.4837L5.23027 23.92L5.39248 20.125L8.59797 18.087L9.41671 14.3778L12.9274 12.9274L14.3778 9.41671L18.087 8.59797L20.125 5.39248L23.92 5.23027L26.4837 2.42737L30.2492 2.92663L33.2607 0.611488L36.8823 1.75704L40.25 0Z" fill="#9D1515"/>
<path d="M19.9639 31.8337V34.0126H31.9101V31.8337H19.9639ZM18.4863 36.7174V38.9213H33.0371V36.7174H18.4863ZM18.9621 41.6011V43.805H32.8618V41.6011H18.9621ZM24.6973 29.3042V37.9195H27.0515V29.3042H24.6973ZM27.7527 38.6458V49.7906C27.7527 50.1412 27.6275 50.2164 27.2268 50.2414C26.801 50.2664 25.4236 50.2664 24.0461 50.2164C24.3717 50.8675 24.6722 51.8943 24.7724 52.5705C26.6758 52.5705 28.0532 52.5204 28.9548 52.1698C29.8314 51.7942 30.1069 51.118 30.1069 49.8156V38.6458H27.7527ZM20.0891 45.2826C21.2412 46.5098 22.5685 48.2128 23.0944 49.3398L24.9978 48.1126C24.3968 46.9856 23.0444 45.3577 21.8422 44.2057L20.0891 45.2826ZM9.72071 42.8282L10.3218 45.1073C12.9014 44.3309 16.3074 43.3041 19.463 42.2773L19.1625 40.1986C15.7314 41.2004 12.125 42.2522 9.72071 42.8282ZM14.3289 29.3543V52.5705H16.5078V29.3543H14.3289ZM11.1232 30.6566C10.8728 33.687 10.3969 36.8426 9.52036 38.9213C9.9962 39.1718 10.8978 39.6977 11.2484 39.9982C12.1751 37.7442 12.8012 34.3131 13.1518 31.0073L11.1232 30.6566ZM11.5239 34.263L11.0982 36.517H18.887V34.263H11.5239ZM48.5647 48.3881C51.1192 49.6654 53.8741 51.3183 55.4769 52.4954L57.6057 50.8926C55.8776 49.7155 52.8973 48.0876 50.2426 46.8354L48.5647 48.3881ZM34.8653 44.5062V46.7352H58.1066V44.5062H34.8653ZM38.5719 38.2451V40.449H54.4V38.2451H38.5719ZM42.6792 29.2792V45.508H44.9082V29.2792H42.6792ZM48.0387 29.2541V45.533H50.2927V29.2541H48.0387ZM37.3948 32.2845V45.3577H39.6739V34.4884H53.4233V45.3577H55.8275V32.2845H37.3948ZM42.3286 46.8604C40.7758 48.2629 37.6453 49.9409 35.0156 50.8675C35.5916 51.3183 36.4181 52.0947 36.8439 52.5956C39.4234 51.5938 42.579 49.8908 44.5325 48.2879L42.3286 46.8604ZM65.7201 50.8174C69.1261 50.8174 71.9061 48.864 71.9061 45.533C71.9061 43.0286 70.2281 41.4508 68.0993 40.8998V40.7746C70.0528 40.0483 71.28 38.5707 71.28 36.4419C71.28 33.4115 68.9508 31.7085 65.645 31.7085C63.5162 31.7085 61.8132 32.6101 60.3355 33.9124L61.8633 35.7407C62.9151 34.6888 64.1173 34.0126 65.5197 34.0126C67.2979 34.0126 68.3498 35.0394 68.3498 36.6673C68.3498 38.5206 67.1476 39.873 63.5412 39.873V42.0268C67.6736 42.0268 68.9759 43.3291 68.9759 45.3828C68.9759 47.2862 67.5483 48.4382 65.4947 48.4382C63.5663 48.4382 62.2139 47.5116 61.137 46.4096L59.7094 48.2629C60.9617 49.6654 62.84 50.8174 65.7201 50.8174Z" fill="white"/>
</svg>
