<svg width="200" height="201" viewBox="0 0 200 201" fill="none" xmlns="http://www.w3.org/2000/svg">
<circle cx="100" cy="100.327" r="100" fill="#9D1515"/>
<path d="M134.373 46.8894C132.789 45.3045 130.882 44.0802 128.782 43.3004C126.681 42.5205 124.437 42.2035 122.203 42.3709C119.969 42.5384 117.797 43.1863 115.836 44.2706C113.876 45.3548 112.172 46.8496 110.843 48.6529C106.886 47.9482 102.808 48.5239 99.2021 50.2963C95.5956 52.0686 92.6487 54.9453 90.79 58.5077C88.9312 62.0702 88.2576 66.1327 88.867 70.1044C89.4764 74.0761 91.3371 77.7498 94.1785 80.5912L102.111 88.5229L93.7317 96.8935L104.439 107.6L112.818 99.2291L120.742 107.153C123.584 109.994 127.258 111.855 131.23 112.464C135.202 113.073 139.265 112.4 142.827 110.541C146.39 108.683 149.267 105.736 151.04 102.13C152.812 98.5236 153.388 94.446 152.683 90.4902C154.484 89.1606 155.977 87.4581 157.059 85.499C158.142 83.5398 158.789 81.3701 158.956 79.138C159.124 76.906 158.808 74.664 158.029 72.5653C157.251 70.4666 156.029 68.5606 154.447 66.9773L149.759 62.2825L153.867 58.1756C154.586 57.4762 155.159 56.6409 155.552 55.7182C155.945 54.7955 156.152 53.8039 156.159 52.8009C156.166 51.7978 155.973 50.8034 155.592 49.8754C155.212 48.9474 154.65 48.1042 153.941 47.395C153.232 46.6857 152.389 46.1244 151.46 45.7438C150.532 45.3631 149.538 45.1707 148.535 45.1776C147.532 45.1845 146.54 45.3907 145.617 45.7841C144.694 46.1776 143.859 46.7504 143.16 47.4694L139.052 51.5763L134.373 46.8894ZM136.489 74.6817C137.225 75.4165 137.639 76.4135 137.64 77.4534C137.64 78.4933 137.228 79.4909 136.493 80.2268C135.758 80.9626 134.761 81.3764 133.721 81.3772C132.681 81.3779 131.684 80.9655 130.948 80.2307L120.97 70.2534C120.595 69.8919 120.297 69.4595 120.091 68.9814C119.886 68.5033 119.778 67.989 119.773 67.4687C119.769 66.9484 119.868 66.4323 120.065 65.9507C120.262 65.4691 120.553 65.0316 120.921 64.6636C121.289 64.2957 121.727 64.0047 122.208 63.8076C122.69 63.6106 123.206 63.5115 123.726 63.516C124.247 63.5205 124.761 63.6286 125.239 63.834C125.717 64.0394 126.15 64.3379 126.511 64.7122L136.489 74.6817ZM53.5607 94.5109C57.1029 90.9715 61.9056 88.9834 66.9132 88.9834C71.9207 88.9834 76.7234 90.9715 80.2656 94.5109L106.829 121.073C109.666 123.916 111.523 127.59 112.129 131.561C112.736 135.531 112.06 139.592 110.202 143.153C108.343 146.713 105.397 149.589 101.793 151.362C98.1885 153.134 94.1127 153.712 90.1575 153.011C88.8278 154.812 87.1252 156.304 85.1659 157.387C83.2066 158.469 81.0367 159.116 78.8045 159.284C76.5722 159.451 74.3301 159.135 72.2313 158.357C70.1324 157.579 68.2262 156.357 66.6428 154.774L61.9477 150.087L57.715 154.328C57.0161 155.047 56.1811 155.621 55.2587 156.015C54.3362 156.409 53.3446 156.616 52.3415 156.623C51.3385 156.631 50.3438 156.439 49.4155 156.059C48.4871 155.679 47.6435 155.119 46.9337 154.41C46.2239 153.701 45.6619 152.858 45.2806 151.931C44.8992 151.003 44.706 150.009 44.7122 149.006C44.7184 148.003 44.9238 147.011 45.3166 146.088C45.7094 145.165 46.2816 144.329 47.0001 143.629L51.2406 139.381L46.5534 134.694C44.971 133.111 43.749 131.205 42.9707 129.106C42.1924 127.008 41.8762 124.766 42.0436 122.534C42.211 120.302 42.8581 118.132 43.9408 116.173C45.0235 114.214 46.5161 112.511 48.317 111.181C47.7809 108.186 47.9779 105.105 48.891 102.202C49.8041 99.2991 51.4063 96.6603 53.5607 94.5109ZM76.6287 140.079C77.3634 139.344 77.7761 138.347 77.7761 137.308C77.7761 136.269 77.3634 135.273 76.6287 134.538L66.6506 124.568C65.9114 123.854 64.9215 123.459 63.8939 123.468C62.8663 123.477 61.8833 123.889 61.1567 124.616C60.4301 125.342 60.0179 126.325 60.009 127.353C60 128.38 60.3951 129.37 61.109 130.109L71.0792 140.079C71.4432 140.444 71.8757 140.733 72.3519 140.931C72.828 141.128 73.3384 141.23 73.8539 141.23C74.3694 141.23 74.8799 141.128 75.356 140.931C75.8321 140.733 76.2646 140.444 76.6287 140.079Z" fill="white"/>
</svg>
