<svg width="200" height="201" viewBox="0 0 200 201" fill="none" xmlns="http://www.w3.org/2000/svg">
<circle cx="100" cy="100.327" r="100" fill="#9D1515"/>
<path d="M44.25 148.327C41.1562 148.327 38.5087 147.222 36.3075 145.013C34.1025 142.799 33 140.139 33 137.033H55.5C52.4062 137.033 49.7588 135.928 47.5575 133.718C45.3525 131.505 44.25 128.845 44.25 125.739V63.6215C44.25 60.5156 45.3525 57.8559 47.5575 55.6422C49.7588 53.4323 52.4062 52.3274 55.5 52.3274H145.5C148.594 52.3274 151.243 53.4323 153.448 55.6422C155.649 57.8559 156.75 60.5156 156.75 63.6215V125.739C156.75 128.845 155.649 131.505 153.448 133.718C151.243 135.928 148.594 137.033 145.5 137.033H168C168 140.139 166.899 142.799 164.698 145.013C162.493 147.222 159.844 148.327 156.75 148.327H44.25ZM100.5 142.68C102.094 142.68 103.431 142.138 104.511 141.054C105.587 139.974 106.125 138.633 106.125 137.033C106.125 135.433 105.587 134.093 104.511 133.013C103.431 131.928 102.094 131.386 100.5 131.386C98.9062 131.386 97.5713 131.928 96.495 133.013C95.415 134.093 94.875 135.433 94.875 137.033C94.875 138.633 95.415 139.974 96.495 141.054C97.5713 142.138 98.9062 142.68 100.5 142.68ZM55.5 125.739H145.5V63.6215H55.5V125.739Z" fill="white"/>
</svg>
