<svg width="200" height="201" viewBox="0 0 200 201" fill="none" xmlns="http://www.w3.org/2000/svg">
<circle cx="100" cy="100.327" r="100" fill="#9D1515"/>
<path d="M57.2222 161.327C53.8611 161.327 50.9828 160.134 48.5872 157.747C46.1957 155.355 45 152.482 45 149.127V63.7274C45 60.3724 46.1957 57.4993 48.5872 55.1081C50.9828 52.721 53.8611 51.5274 57.2222 51.5274H82.8889C84.213 47.8674 86.4293 44.9191 89.5378 42.6824C92.6422 40.4457 96.1296 39.3274 100 39.3274C103.87 39.3274 107.36 40.4457 110.468 42.6824C113.573 44.9191 115.787 47.8674 117.111 51.5274H142.778C146.139 51.5274 149.017 52.721 151.413 55.1081C153.804 57.4993 155 60.3724 155 63.7274V149.127C155 152.482 153.804 155.355 151.413 157.747C149.017 160.134 146.139 161.327 142.778 161.327H57.2222ZM69.4444 136.927H112.222V124.727H69.4444V136.927ZM69.4444 112.527H130.556V100.327H69.4444V112.527ZM69.4444 88.1274H130.556V75.9274H69.4444V88.1274ZM100 59.1524C101.324 59.1524 102.42 58.7193 103.288 57.8531C104.151 56.991 104.583 55.8991 104.583 54.5774C104.583 53.2557 104.151 52.1618 103.288 51.2956C102.42 50.4335 101.324 50.0024 100 50.0024C98.6759 50.0024 97.582 50.4335 96.7183 51.2956C95.8506 52.1618 95.4167 53.2557 95.4167 54.5774C95.4167 55.8991 95.8506 56.991 96.7183 57.8531C97.582 58.7193 98.6759 59.1524 100 59.1524Z" fill="white"/>
</svg>
