<svg width="335" height="53" viewBox="0 0 335 53" fill="none" xmlns="http://www.w3.org/2000/svg">
<path d="M61.148 52.9998H0L8.68383 33.5116L0 13.6167H61.148V52.9998Z" fill="#9D1515"/>
<path d="M61.1479 13.6169H20.9858V41.2255L40.4361 53.0001H61.1479V13.6169Z" fill="#9D1515"/>
<path d="M61.1478 53.0001L23.1567 38.3834L61.1478 13.6169V53.0001Z" fill="#7F0707"/>
<path d="M273.852 53.0001H335L326.316 33.5119L335 13.6169H273.852V53.0001Z" fill="#9D1515"/>
<path d="M273.852 13.6169H314.014V41.2255L294.564 53.0001H273.852V13.6169Z" fill="#9D1515"/>
<path d="M273.852 53.0001L311.843 38.3834L273.852 13.6169V53.0001Z" fill="#7F0707"/>
<path d="M311.658 0H22.9712V39.3839H311.658V0Z" fill="#9D1515"/>
<path d="M57.496 24.368C57.496 25.392 57.264 26.264 56.8 26.984C56.336 27.704 55.672 28.264 54.808 28.664C53.944 29.048 52.888 29.24 51.64 29.24C51.032 29.24 50.448 29.2 49.888 29.12C49.344 29.056 48.84 28.96 48.376 28.832C47.928 28.704 47.504 28.544 47.104 28.352V25.904C47.744 26.192 48.472 26.456 49.288 26.696C50.12 26.92 50.944 27.032 51.76 27.032C52.464 27.032 53.04 26.928 53.488 26.72C53.952 26.512 54.296 26.224 54.52 25.856C54.76 25.488 54.88 25.056 54.88 24.56C54.88 24.032 54.76 23.592 54.52 23.24C54.296 22.872 53.92 22.536 53.392 22.232C52.88 21.912 52.192 21.584 51.328 21.248C50.72 20.992 50.168 20.72 49.672 20.432C49.176 20.128 48.744 19.776 48.376 19.376C48.024 18.976 47.752 18.512 47.56 17.984C47.384 17.456 47.296 16.84 47.296 16.136C47.296 15.192 47.52 14.384 47.968 13.712C48.416 13.04 49.04 12.528 49.84 12.176C50.64 11.808 51.576 11.624 52.648 11.624C53.544 11.624 54.368 11.72 55.12 11.912C55.872 12.088 56.584 12.336 57.256 12.656L56.416 14.792C55.792 14.52 55.16 14.296 54.52 14.12C53.896 13.944 53.248 13.856 52.576 13.856C51.984 13.856 51.488 13.952 51.088 14.144C50.704 14.336 50.416 14.6 50.224 14.936C50.032 15.272 49.936 15.664 49.936 16.112C49.936 16.64 50.048 17.08 50.272 17.432C50.496 17.784 50.856 18.112 51.352 18.416C51.848 18.704 52.504 19.024 53.32 19.376C54.216 19.76 54.976 20.168 55.6 20.6C56.224 21.016 56.696 21.528 57.016 22.136C57.336 22.728 57.496 23.472 57.496 24.368ZM67.6356 11.864C69.7316 11.864 71.2596 12.32 72.2196 13.232C73.1956 14.128 73.6836 15.384 73.6836 17C73.6836 17.72 73.5716 18.408 73.3476 19.064C73.1396 19.72 72.7876 20.312 72.2916 20.84C71.8116 21.352 71.1636 21.76 70.3476 22.064C69.5316 22.352 68.5316 22.496 67.3476 22.496H65.6676V29H63.0036V11.864H67.6356ZM67.4916 14.048H65.6676V20.312H67.0596C67.9236 20.312 68.6436 20.208 69.2196 20C69.7956 19.776 70.2276 19.432 70.5156 18.968C70.8196 18.488 70.9716 17.864 70.9716 17.096C70.9716 16.072 70.6916 15.312 70.1316 14.816C69.5716 14.304 68.6916 14.048 67.4916 14.048ZM83.8872 11.864C85.2632 11.864 86.3992 12.048 87.2952 12.416C88.1912 12.784 88.8552 13.336 89.2872 14.072C89.7352 14.792 89.9592 15.704 89.9592 16.808C89.9592 17.688 89.8072 18.432 89.5032 19.04C89.2152 19.632 88.8312 20.12 88.3512 20.504C87.8872 20.872 87.3832 21.168 86.8392 21.392L91.3752 29H88.3512L84.5352 22.064H81.9192V29H79.2552V11.864H83.8872ZM83.7672 14.072H81.9192V19.904H83.8152C84.5992 19.904 85.2392 19.792 85.7352 19.568C86.2472 19.344 86.6232 19.008 86.8632 18.56C87.1192 18.112 87.2472 17.56 87.2472 16.904C87.2472 16.216 87.1192 15.672 86.8632 15.272C86.6232 14.856 86.2392 14.552 85.7112 14.36C85.1992 14.168 84.5512 14.072 83.7672 14.072ZM101.302 29H94.7978V27.512L96.7178 26.912V13.976L94.7978 13.352V11.864H101.302V13.352L99.3818 13.976V26.912L101.302 27.512V29ZM120.113 29H116.849L108.953 15.152H108.857C108.873 15.472 108.889 15.816 108.905 16.184C108.937 16.552 108.961 16.944 108.977 17.36C108.993 17.76 109.009 18.176 109.025 18.608C109.041 19.024 109.057 19.448 109.073 19.88V29H106.649V11.864H109.889L117.761 25.64H117.857C117.841 25.4 117.825 25.104 117.809 24.752C117.793 24.384 117.777 23.992 117.761 23.576C117.745 23.16 117.729 22.736 117.713 22.304C117.697 21.872 117.689 21.464 117.689 21.08V11.864H120.113V29ZM133.465 19.784H139.393V28.328C138.529 28.632 137.641 28.856 136.729 29C135.817 29.16 134.793 29.24 133.657 29.24C132.009 29.24 130.609 28.888 129.457 28.184C128.321 27.48 127.449 26.472 126.841 25.16C126.249 23.848 125.953 22.272 125.953 20.432C125.953 18.64 126.281 17.088 126.937 15.776C127.593 14.464 128.545 13.448 129.793 12.728C131.041 11.992 132.553 11.624 134.329 11.624C135.241 11.624 136.105 11.72 136.921 11.912C137.753 12.088 138.513 12.336 139.201 12.656L138.265 14.816C137.705 14.544 137.081 14.32 136.393 14.144C135.721 13.952 135.017 13.856 134.281 13.856C133.097 13.856 132.089 14.128 131.257 14.672C130.425 15.2 129.793 15.96 129.361 16.952C128.929 17.928 128.713 19.096 128.713 20.456C128.713 21.736 128.897 22.872 129.265 23.864C129.633 24.856 130.209 25.632 130.993 26.192C131.777 26.752 132.793 27.032 134.041 27.032C134.457 27.032 134.825 27.016 135.145 26.984C135.465 26.936 135.761 26.888 136.033 26.84C136.321 26.776 136.577 26.72 136.801 26.672V22.016H133.465V19.784ZM160.746 13.856C159.978 13.856 159.282 14.008 158.658 14.312C158.05 14.6 157.53 15.032 157.098 15.608C156.682 16.184 156.362 16.88 156.138 17.696C155.914 18.512 155.802 19.432 155.802 20.456C155.802 21.8 155.986 22.968 156.354 23.96C156.722 24.936 157.274 25.688 158.01 26.216C158.746 26.744 159.658 27.008 160.746 27.008C161.45 27.008 162.122 26.944 162.762 26.816C163.402 26.672 164.05 26.488 164.706 26.264V28.496C164.066 28.752 163.41 28.936 162.738 29.048C162.082 29.176 161.314 29.24 160.434 29.24C158.77 29.24 157.394 28.88 156.306 28.16C155.218 27.44 154.402 26.416 153.858 25.088C153.314 23.76 153.042 22.208 153.042 20.432C153.042 19.136 153.21 17.952 153.546 16.88C153.882 15.792 154.378 14.856 155.034 14.072C155.69 13.288 156.498 12.688 157.458 12.272C158.418 11.84 159.514 11.624 160.746 11.624C161.578 11.624 162.394 11.72 163.194 11.912C163.994 12.088 164.706 12.344 165.33 12.68L164.394 14.84C163.866 14.584 163.29 14.36 162.666 14.168C162.058 13.96 161.418 13.856 160.746 13.856ZM180.562 29L178.954 24.056H172.834L171.226 29H168.442L174.466 11.792H177.346L183.346 29H180.562ZM176.674 16.976C176.626 16.784 176.546 16.52 176.434 16.184C176.338 15.832 176.242 15.472 176.146 15.104C176.05 14.72 175.962 14.4 175.882 14.144C175.818 14.496 175.738 14.848 175.642 15.2C175.546 15.552 175.458 15.88 175.378 16.184C175.298 16.488 175.226 16.752 175.162 16.976L173.578 21.8H178.258L176.674 16.976ZM194.892 29L190.188 14.432H190.092C190.124 14.752 190.148 15.184 190.164 15.728C190.196 16.272 190.22 16.856 190.236 17.48C190.268 18.104 190.284 18.72 190.284 19.328V29H187.86V11.864H191.604L196.116 25.616H196.188L200.772 11.864H204.516V29H201.972V19.184C201.972 18.624 201.98 18.048 201.996 17.456C202.012 16.848 202.036 16.28 202.068 15.752C202.1 15.224 202.124 14.792 202.14 14.456H202.044L197.22 29H194.892ZM215.751 11.864C217.847 11.864 219.375 12.32 220.335 13.232C221.311 14.128 221.799 15.384 221.799 17C221.799 17.72 221.687 18.408 221.463 19.064C221.255 19.72 220.903 20.312 220.407 20.84C219.927 21.352 219.279 21.76 218.463 22.064C217.647 22.352 216.647 22.496 215.463 22.496H213.783V29H211.119V11.864H215.751ZM215.607 14.048H213.783V20.312H215.175C216.039 20.312 216.759 20.208 217.335 20C217.911 19.776 218.343 19.432 218.631 18.968C218.935 18.488 219.087 17.864 219.087 17.096C219.087 16.072 218.807 15.312 218.247 14.816C217.687 14.304 216.807 14.048 215.607 14.048ZM236.278 29L234.67 24.056H228.55L226.942 29H224.158L230.182 11.792H233.062L239.062 29H236.278ZM232.39 16.976C232.342 16.784 232.262 16.52 232.15 16.184C232.054 15.832 231.958 15.472 231.862 15.104C231.766 14.72 231.678 14.4 231.598 14.144C231.534 14.496 231.454 14.848 231.358 15.2C231.262 15.552 231.174 15.88 231.094 16.184C231.014 16.488 230.942 16.752 230.878 16.976L229.294 21.8H233.974L232.39 16.976ZM248.832 29H242.328V27.512L244.248 26.912V13.976L242.328 13.352V11.864H248.832V13.352L246.912 13.976V26.912L248.832 27.512V29ZM260.923 19.784H266.851V28.328C265.987 28.632 265.099 28.856 264.187 29C263.275 29.16 262.251 29.24 261.115 29.24C259.467 29.24 258.067 28.888 256.915 28.184C255.779 27.48 254.907 26.472 254.299 25.16C253.707 23.848 253.411 22.272 253.411 20.432C253.411 18.64 253.739 17.088 254.395 15.776C255.051 14.464 256.003 13.448 257.251 12.728C258.499 11.992 260.011 11.624 261.787 11.624C262.699 11.624 263.563 11.72 264.379 11.912C265.211 12.088 265.971 12.336 266.659 12.656L265.723 14.816C265.163 14.544 264.539 14.32 263.851 14.144C263.179 13.952 262.475 13.856 261.739 13.856C260.555 13.856 259.547 14.128 258.715 14.672C257.883 15.2 257.251 15.96 256.819 16.952C256.387 17.928 256.171 19.096 256.171 20.456C256.171 21.736 256.355 22.872 256.723 23.864C257.091 24.856 257.667 25.632 258.451 26.192C259.235 26.752 260.251 27.032 261.499 27.032C261.915 27.032 262.283 27.016 262.603 26.984C262.923 26.936 263.219 26.888 263.491 26.84C263.779 26.776 264.035 26.72 264.259 26.672V22.016H260.923V19.784ZM286.472 29H283.208L275.312 15.152H275.216C275.232 15.472 275.248 15.816 275.264 16.184C275.296 16.552 275.32 16.944 275.336 17.36C275.352 17.76 275.368 18.176 275.384 18.608C275.4 19.024 275.416 19.448 275.432 19.88V29H273.008V11.864H276.248L284.12 25.64H284.216C284.2 25.4 284.184 25.104 284.168 24.752C284.152 24.384 284.136 23.992 284.12 23.576C284.104 23.16 284.088 22.736 284.072 22.304C284.056 21.872 284.048 21.464 284.048 21.08V11.864H286.472V29Z" fill="white"/>
</svg>
