<svg width="672" height="53" viewBox="0 0 672 53" fill="none" xmlns="http://www.w3.org/2000/svg">
<path d="M122.978 52.9998H0.5L17.8936 33.5116L0.5 13.6167H122.978V52.9998Z" fill="#9D1515"/>
<path d="M122.979 13.6169H42.5347V41.2255L81.4933 53.0001H122.979V13.6169Z" fill="#9D1515"/>
<path d="M122.978 53.0001L46.8828 38.3834L122.978 13.6169V53.0001Z" fill="#7F0707"/>
<path d="M549.02 53.0001H671.5L654.106 33.5119L671.5 13.6169H549.02V53.0001Z" fill="#9D1515"/>
<path d="M549.02 13.6169H629.464V41.2255L590.507 53.0001H549.02V13.6169Z" fill="#9D1515"/>
<path d="M549.02 53.0001L625.117 38.3834L549.02 13.6169V53.0001Z" fill="#7F0707"/>
<path d="M625.234 0H47V39.3839H625.234V0Z" fill="#9D1515"/>
<path d="M225.496 24.368C225.496 25.392 225.264 26.264 224.8 26.984C224.336 27.704 223.672 28.264 222.808 28.664C221.944 29.048 220.888 29.24 219.64 29.24C219.032 29.24 218.448 29.2 217.888 29.12C217.344 29.056 216.84 28.96 216.376 28.832C215.928 28.704 215.504 28.544 215.104 28.352V25.904C215.744 26.192 216.472 26.456 217.288 26.696C218.12 26.92 218.944 27.032 219.76 27.032C220.464 27.032 221.04 26.928 221.488 26.72C221.952 26.512 222.296 26.224 222.52 25.856C222.76 25.488 222.88 25.056 222.88 24.56C222.88 24.032 222.76 23.592 222.52 23.24C222.296 22.872 221.92 22.536 221.392 22.232C220.88 21.912 220.192 21.584 219.328 21.248C218.72 20.992 218.168 20.72 217.672 20.432C217.176 20.128 216.744 19.776 216.376 19.376C216.024 18.976 215.752 18.512 215.56 17.984C215.384 17.456 215.296 16.84 215.296 16.136C215.296 15.192 215.52 14.384 215.968 13.712C216.416 13.04 217.04 12.528 217.84 12.176C218.64 11.808 219.576 11.624 220.648 11.624C221.544 11.624 222.368 11.72 223.12 11.912C223.872 12.088 224.584 12.336 225.256 12.656L224.416 14.792C223.792 14.52 223.16 14.296 222.52 14.12C221.896 13.944 221.248 13.856 220.576 13.856C219.984 13.856 219.488 13.952 219.088 14.144C218.704 14.336 218.416 14.6 218.224 14.936C218.032 15.272 217.936 15.664 217.936 16.112C217.936 16.64 218.048 17.08 218.272 17.432C218.496 17.784 218.856 18.112 219.352 18.416C219.848 18.704 220.504 19.024 221.32 19.376C222.216 19.76 222.976 20.168 223.6 20.6C224.224 21.016 224.696 21.528 225.016 22.136C225.336 22.728 225.496 23.472 225.496 24.368ZM235.636 11.864C237.732 11.864 239.26 12.32 240.22 13.232C241.196 14.128 241.684 15.384 241.684 17C241.684 17.72 241.572 18.408 241.348 19.064C241.14 19.72 240.788 20.312 240.292 20.84C239.812 21.352 239.164 21.76 238.348 22.064C237.532 22.352 236.532 22.496 235.348 22.496H233.668V29H231.004V11.864H235.636ZM235.492 14.048H233.668V20.312H235.06C235.924 20.312 236.644 20.208 237.22 20C237.796 19.776 238.228 19.432 238.516 18.968C238.82 18.488 238.972 17.864 238.972 17.096C238.972 16.072 238.692 15.312 238.132 14.816C237.572 14.304 236.692 14.048 235.492 14.048ZM251.887 11.864C253.263 11.864 254.399 12.048 255.295 12.416C256.191 12.784 256.855 13.336 257.287 14.072C257.735 14.792 257.959 15.704 257.959 16.808C257.959 17.688 257.807 18.432 257.503 19.04C257.215 19.632 256.831 20.12 256.351 20.504C255.887 20.872 255.383 21.168 254.839 21.392L259.375 29H256.351L252.535 22.064H249.919V29H247.255V11.864H251.887ZM251.767 14.072H249.919V19.904H251.815C252.599 19.904 253.239 19.792 253.735 19.568C254.247 19.344 254.623 19.008 254.863 18.56C255.119 18.112 255.247 17.56 255.247 16.904C255.247 16.216 255.119 15.672 254.863 15.272C254.623 14.856 254.239 14.552 253.711 14.36C253.199 14.168 252.551 14.072 251.767 14.072ZM269.302 29H262.798V27.512L264.718 26.912V13.976L262.798 13.352V11.864H269.302V13.352L267.382 13.976V26.912L269.302 27.512V29ZM288.113 29H284.849L276.953 15.152H276.857C276.873 15.472 276.889 15.816 276.905 16.184C276.937 16.552 276.961 16.944 276.977 17.36C276.993 17.76 277.009 18.176 277.025 18.608C277.041 19.024 277.057 19.448 277.073 19.88V29H274.649V11.864H277.889L285.761 25.64H285.857C285.841 25.4 285.825 25.104 285.809 24.752C285.793 24.384 285.777 23.992 285.761 23.576C285.745 23.16 285.729 22.736 285.713 22.304C285.697 21.872 285.689 21.464 285.689 21.08V11.864H288.113V29ZM301.465 19.784H307.393V28.328C306.529 28.632 305.641 28.856 304.729 29C303.817 29.16 302.793 29.24 301.657 29.24C300.009 29.24 298.609 28.888 297.457 28.184C296.321 27.48 295.449 26.472 294.841 25.16C294.249 23.848 293.953 22.272 293.953 20.432C293.953 18.64 294.281 17.088 294.937 15.776C295.593 14.464 296.545 13.448 297.793 12.728C299.041 11.992 300.553 11.624 302.329 11.624C303.241 11.624 304.105 11.72 304.921 11.912C305.753 12.088 306.513 12.336 307.201 12.656L306.265 14.816C305.705 14.544 305.081 14.32 304.393 14.144C303.721 13.952 303.017 13.856 302.281 13.856C301.097 13.856 300.089 14.128 299.257 14.672C298.425 15.2 297.793 15.96 297.361 16.952C296.929 17.928 296.713 19.096 296.713 20.456C296.713 21.736 296.897 22.872 297.265 23.864C297.633 24.856 298.209 25.632 298.993 26.192C299.777 26.752 300.793 27.032 302.041 27.032C302.457 27.032 302.825 27.016 303.145 26.984C303.465 26.936 303.761 26.888 304.033 26.84C304.321 26.776 304.577 26.72 304.801 26.672V22.016H301.465V19.784ZM328.746 13.856C327.978 13.856 327.282 14.008 326.658 14.312C326.05 14.6 325.53 15.032 325.098 15.608C324.682 16.184 324.362 16.88 324.138 17.696C323.914 18.512 323.802 19.432 323.802 20.456C323.802 21.8 323.986 22.968 324.354 23.96C324.722 24.936 325.274 25.688 326.01 26.216C326.746 26.744 327.658 27.008 328.746 27.008C329.45 27.008 330.122 26.944 330.762 26.816C331.402 26.672 332.05 26.488 332.706 26.264V28.496C332.066 28.752 331.41 28.936 330.738 29.048C330.082 29.176 329.314 29.24 328.434 29.24C326.77 29.24 325.394 28.88 324.306 28.16C323.218 27.44 322.402 26.416 321.858 25.088C321.314 23.76 321.042 22.208 321.042 20.432C321.042 19.136 321.21 17.952 321.546 16.88C321.882 15.792 322.378 14.856 323.034 14.072C323.69 13.288 324.498 12.688 325.458 12.272C326.418 11.84 327.514 11.624 328.746 11.624C329.578 11.624 330.394 11.72 331.194 11.912C331.994 12.088 332.706 12.344 333.33 12.68L332.394 14.84C331.866 14.584 331.29 14.36 330.666 14.168C330.058 13.96 329.418 13.856 328.746 13.856ZM348.562 29L346.954 24.056H340.834L339.226 29H336.442L342.466 11.792H345.346L351.346 29H348.562ZM344.674 16.976C344.626 16.784 344.546 16.52 344.434 16.184C344.338 15.832 344.242 15.472 344.146 15.104C344.05 14.72 343.962 14.4 343.882 14.144C343.818 14.496 343.738 14.848 343.642 15.2C343.546 15.552 343.458 15.88 343.378 16.184C343.298 16.488 343.226 16.752 343.162 16.976L341.578 21.8H346.258L344.674 16.976ZM362.892 29L358.188 14.432H358.092C358.124 14.752 358.148 15.184 358.164 15.728C358.196 16.272 358.22 16.856 358.236 17.48C358.268 18.104 358.284 18.72 358.284 19.328V29H355.86V11.864H359.604L364.116 25.616H364.188L368.772 11.864H372.516V29H369.972V19.184C369.972 18.624 369.98 18.048 369.996 17.456C370.012 16.848 370.036 16.28 370.068 15.752C370.1 15.224 370.124 14.792 370.14 14.456H370.044L365.22 29H362.892ZM383.751 11.864C385.847 11.864 387.375 12.32 388.335 13.232C389.311 14.128 389.799 15.384 389.799 17C389.799 17.72 389.687 18.408 389.463 19.064C389.255 19.72 388.903 20.312 388.407 20.84C387.927 21.352 387.279 21.76 386.463 22.064C385.647 22.352 384.647 22.496 383.463 22.496H381.783V29H379.119V11.864H383.751ZM383.607 14.048H381.783V20.312H383.175C384.039 20.312 384.759 20.208 385.335 20C385.911 19.776 386.343 19.432 386.631 18.968C386.935 18.488 387.087 17.864 387.087 17.096C387.087 16.072 386.807 15.312 386.247 14.816C385.687 14.304 384.807 14.048 383.607 14.048ZM404.278 29L402.67 24.056H396.55L394.942 29H392.158L398.182 11.792H401.062L407.062 29H404.278ZM400.39 16.976C400.342 16.784 400.262 16.52 400.15 16.184C400.054 15.832 399.958 15.472 399.862 15.104C399.766 14.72 399.678 14.4 399.598 14.144C399.534 14.496 399.454 14.848 399.358 15.2C399.262 15.552 399.174 15.88 399.094 16.184C399.014 16.488 398.942 16.752 398.878 16.976L397.294 21.8H401.974L400.39 16.976ZM416.832 29H410.328V27.512L412.248 26.912V13.976L410.328 13.352V11.864H416.832V13.352L414.912 13.976V26.912L416.832 27.512V29ZM428.923 19.784H434.851V28.328C433.987 28.632 433.099 28.856 432.187 29C431.275 29.16 430.251 29.24 429.115 29.24C427.467 29.24 426.067 28.888 424.915 28.184C423.779 27.48 422.907 26.472 422.299 25.16C421.707 23.848 421.411 22.272 421.411 20.432C421.411 18.64 421.739 17.088 422.395 15.776C423.051 14.464 424.003 13.448 425.251 12.728C426.499 11.992 428.011 11.624 429.787 11.624C430.699 11.624 431.563 11.72 432.379 11.912C433.211 12.088 433.971 12.336 434.659 12.656L433.723 14.816C433.163 14.544 432.539 14.32 431.851 14.144C431.179 13.952 430.475 13.856 429.739 13.856C428.555 13.856 427.547 14.128 426.715 14.672C425.883 15.2 425.251 15.96 424.819 16.952C424.387 17.928 424.171 19.096 424.171 20.456C424.171 21.736 424.355 22.872 424.723 23.864C425.091 24.856 425.667 25.632 426.451 26.192C427.235 26.752 428.251 27.032 429.499 27.032C429.915 27.032 430.283 27.016 430.603 26.984C430.923 26.936 431.219 26.888 431.491 26.84C431.779 26.776 432.035 26.72 432.259 26.672V22.016H428.923V19.784ZM454.472 29H451.208L443.312 15.152H443.216C443.232 15.472 443.248 15.816 443.264 16.184C443.296 16.552 443.32 16.944 443.336 17.36C443.352 17.76 443.368 18.176 443.384 18.608C443.4 19.024 443.416 19.448 443.432 19.88V29H441.008V11.864H444.248L452.12 25.64H452.216C452.2 25.4 452.184 25.104 452.168 24.752C452.152 24.384 452.136 23.992 452.12 23.576C452.104 23.16 452.088 22.736 452.072 22.304C452.056 21.872 452.048 21.464 452.048 21.08V11.864H454.472V29Z" fill="white"/>
</svg>
