<svg width="59" height="40" viewBox="0 0 59 40" fill="none" xmlns="http://www.w3.org/2000/svg">
<path d="M20.1767 9H18.4617V2.32148H16.2582V0.89037H22.3802V2.32148H20.1767V9ZM30.1502 9H28.1967L26.0727 5.58123L25.3458 6.1037V9H23.6307V0.89037H25.3458V4.60444C25.4594 4.44543 25.573 4.28642 25.6865 4.12741C25.8001 3.96839 25.9137 3.80938 26.0273 3.65037L28.2194 0.89037H30.1275L27.2994 4.47951L30.1502 9ZM38.3113 4.93383C38.3113 5.5623 38.2318 6.13399 38.0728 6.64889C37.9214 7.15621 37.6866 7.59539 37.3686 7.96642C37.0582 8.33745 36.6568 8.6214 36.1647 8.81827C35.6801 9.01514 35.1084 9.11358 34.4496 9.11358C33.7908 9.11358 33.2154 9.01514 32.7232 8.81827C32.2386 8.61383 31.8373 8.32988 31.5192 7.96642C31.2088 7.59539 30.974 7.15243 30.815 6.63753C30.6636 6.12263 30.5879 5.55095 30.5879 4.92247C30.5879 4.08198 30.7242 3.35128 30.9968 2.73037C31.2769 2.10946 31.701 1.62864 32.2689 1.2879C32.8443 0.939588 33.575 0.765432 34.461 0.765432C35.3393 0.765432 36.0624 0.939588 36.6303 1.2879C37.1982 1.62864 37.6185 2.11325 37.8911 2.74173C38.1712 3.36263 38.3113 4.09333 38.3113 4.93383ZM32.3938 4.93383C32.3938 5.50173 32.4657 5.99012 32.6096 6.39901C32.7535 6.8079 32.9768 7.12214 33.2797 7.34173C33.5826 7.56132 33.9726 7.67111 34.4496 7.67111C34.9418 7.67111 35.3355 7.56132 35.6308 7.34173C35.9337 7.12214 36.1533 6.8079 36.2896 6.39901C36.4335 5.99012 36.5054 5.50173 36.5054 4.93383C36.5054 4.07819 36.3464 3.40807 36.0284 2.92346C35.7103 2.43885 35.1879 2.19654 34.461 2.19654C33.9764 2.19654 33.5826 2.30634 33.2797 2.52593C32.9768 2.74551 32.7535 3.05975 32.6096 3.46864C32.4657 3.87753 32.3938 4.36593 32.3938 4.93383ZM2.69461 15.8904C3.73954 15.8904 4.50053 16.1175 4.97757 16.5719C5.46218 17.0186 5.70448 17.6357 5.70448 18.4232C5.70448 18.7791 5.65148 19.1198 5.54547 19.4454C5.43946 19.7635 5.26152 20.0512 5.01164 20.3086C4.76934 20.5585 4.44753 20.7554 4.04621 20.8993C3.64489 21.0431 3.14893 21.1151 2.55831 21.1151H1.82004V24H0.104977V15.8904H2.69461ZM2.60374 17.2988H1.82004V19.7067H2.38794C2.71354 19.7067 2.9937 19.665 3.22843 19.5817C3.46317 19.4984 3.64489 19.3659 3.77362 19.1842C3.90234 19.0025 3.96671 18.7677 3.96671 18.48C3.96671 18.0787 3.85691 17.7834 3.63732 17.5941C3.41773 17.3972 3.07321 17.2988 2.60374 17.2988ZM11.9052 24H7.23702V15.8904H11.9052V17.2988H8.95208V19.082H11.7007V20.4904H8.95208V22.5802H11.9052V24ZM15.9551 15.8904C16.6896 15.8904 17.2953 15.9812 17.7724 16.163C18.2494 16.3371 18.6053 16.6059 18.84 16.9694C19.0748 17.3253 19.1921 17.7758 19.1921 18.321C19.1921 18.692 19.1202 19.0176 18.9763 19.2978C18.84 19.5704 18.6545 19.8051 18.4198 20.002C18.1926 20.1913 17.9465 20.3465 17.6815 20.4677L20.0667 24H18.1586L16.2277 20.8879H15.3077V24H13.5926V15.8904H15.9551ZM15.8302 17.2988H15.3077V19.4909H15.8642C16.2428 19.4909 16.5495 19.4492 16.7842 19.3659C17.019 19.2826 17.1893 19.1577 17.2953 18.9911C17.4014 18.817 17.4544 18.6087 17.4544 18.3664C17.4544 18.109 17.3938 17.9045 17.2726 17.7531C17.1591 17.5941 16.9811 17.4805 16.7388 17.4123C16.5041 17.3366 16.2012 17.2988 15.8302 17.2988ZM25.8724 21.7511C25.8724 22.2281 25.7551 22.6446 25.5203 23.0005C25.2856 23.3564 24.9449 23.6328 24.4981 23.8296C24.0589 24.0189 23.5213 24.1136 22.8853 24.1136C22.6051 24.1136 22.3287 24.0947 22.0561 24.0568C21.7911 24.0189 21.5337 23.9659 21.2838 23.8978C21.0415 23.8221 20.8105 23.7312 20.5909 23.6252V22.0237C20.9771 22.1903 21.3747 22.3455 21.7835 22.4894C22.2 22.6257 22.6127 22.6938 23.0216 22.6938C23.3017 22.6938 23.5251 22.656 23.6917 22.5802C23.8658 22.5045 23.9908 22.4023 24.0665 22.2736C24.1498 22.1449 24.1914 21.9972 24.1914 21.8306C24.1914 21.6262 24.1195 21.452 23.9756 21.3081C23.8393 21.1643 23.6538 21.0318 23.4191 20.9106C23.1844 20.7819 22.9156 20.6456 22.6127 20.5017C22.4234 20.4109 22.2189 20.3049 21.9993 20.1837C21.7798 20.055 21.5677 19.8998 21.3633 19.718C21.1664 19.5287 21.0036 19.3016 20.8749 19.0365C20.7462 18.7715 20.6818 18.4535 20.6818 18.0825C20.6818 17.5979 20.7916 17.1852 21.0112 16.8444C21.2384 16.4961 21.5564 16.2311 21.9653 16.0494C22.3817 15.8677 22.8701 15.7768 23.4305 15.7768C23.8545 15.7768 24.2558 15.826 24.6344 15.9244C25.0206 16.0229 25.4219 16.163 25.8384 16.3447L25.2818 17.6849C24.9108 17.5335 24.5776 17.4161 24.2823 17.3328C23.987 17.2495 23.6841 17.2079 23.3737 17.2079C23.1616 17.2079 22.9799 17.242 22.8285 17.3101C22.677 17.3783 22.5597 17.4729 22.4764 17.5941C22.4007 17.7152 22.3628 17.8591 22.3628 18.0257C22.3628 18.215 22.4196 18.3778 22.5332 18.5141C22.6468 18.6428 22.8171 18.7677 23.0443 18.8889C23.2714 19.01 23.5554 19.1539 23.8961 19.3205C24.3126 19.5174 24.6647 19.7218 24.9524 19.9338C25.2477 20.1458 25.4749 20.3957 25.6339 20.6835C25.7929 20.9712 25.8724 21.3271 25.8724 21.7511ZM34.7065 19.9338C34.7065 20.5623 34.627 21.134 34.468 21.6489C34.3165 22.1562 34.0818 22.5954 33.7638 22.9664C33.4533 23.3374 33.052 23.6214 32.5598 23.8183C32.0752 24.0151 31.5035 24.1136 30.8448 24.1136C30.186 24.1136 29.6105 24.0151 29.1183 23.8183C28.6337 23.6138 28.2324 23.3299 27.9144 22.9664C27.6039 22.5954 27.3692 22.1524 27.2102 21.6375C27.0588 21.1226 26.983 20.5509 26.983 19.9225C26.983 19.082 27.1193 18.3513 27.3919 17.7304C27.6721 17.1095 28.0961 16.6286 28.664 16.2879C29.2395 15.9396 29.9702 15.7654 30.8561 15.7654C31.7345 15.7654 32.4576 15.9396 33.0255 16.2879C33.5934 16.6286 34.0136 17.1133 34.2862 17.7417C34.5664 18.3626 34.7065 19.0933 34.7065 19.9338ZM28.789 19.9338C28.789 20.5017 28.8609 20.9901 29.0048 21.399C29.1486 21.8079 29.372 22.1221 29.6749 22.3417C29.9778 22.5613 30.3677 22.6711 30.8448 22.6711C31.3369 22.6711 31.7307 22.5613 32.026 22.3417C32.3289 22.1221 32.5485 21.8079 32.6848 21.399C32.8286 20.9901 32.9006 20.5017 32.9006 19.9338C32.9006 19.0782 32.7416 18.4081 32.4235 17.9235C32.1055 17.4388 31.583 17.1965 30.8561 17.1965C30.3715 17.1965 29.9778 17.3063 29.6749 17.5259C29.372 17.7455 29.1486 18.0598 29.0048 18.4686C28.8609 18.8775 28.789 19.3659 28.789 19.9338ZM43.5759 24H41.3952L37.8629 17.8667H37.8174C37.825 18.056 37.8326 18.2491 37.8401 18.4459C37.8477 18.6352 37.8553 18.8283 37.8629 19.0252C37.878 19.2145 37.8894 19.4076 37.8969 19.6044C37.9045 19.7937 37.9121 19.9868 37.9197 20.1837V24H36.3863V15.8904H38.5557L42.0767 21.9669H42.1108C42.1032 21.7776 42.0956 21.5921 42.088 21.4104C42.0805 21.2211 42.0729 21.0356 42.0653 20.8538C42.0653 20.6645 42.0615 20.479 42.054 20.2973C42.0464 20.108 42.0388 19.9187 42.0313 19.7294V15.8904H43.5759V24ZM50.5893 24L49.9986 22.0691H47.0456L46.4549 24H44.6036L47.4658 15.8563H49.567L52.4406 24H50.5893ZM48.9991 18.7412C48.9613 18.6125 48.9121 18.4497 48.8515 18.2528C48.7909 18.056 48.7303 17.8553 48.6698 17.6509C48.6092 17.4464 48.56 17.2685 48.5221 17.117C48.4842 17.2685 48.4312 17.4578 48.3631 17.6849C48.3025 17.9045 48.2419 18.1165 48.1814 18.321C48.1284 18.5179 48.0867 18.6579 48.0564 18.7412L47.4772 20.6267H49.5898L48.9991 18.7412ZM53.4677 24V15.8904H55.1828V22.5802H58.4766V24H53.4677ZM4.39862 39H2.68356V32.3215H0.480104V30.8904H6.60208V32.3215H4.39862V39ZM10.2151 30.8904C10.9496 30.8904 11.5553 30.9812 12.0324 31.163C12.5094 31.3371 12.8653 31.6059 13.1 31.9694C13.3348 32.3253 13.4521 32.7758 13.4521 33.321C13.4521 33.692 13.3802 34.0176 13.2363 34.2978C13.1 34.5704 12.9145 34.8051 12.6798 35.002C12.4526 35.1913 12.2065 35.3465 11.9415 35.4677L14.3267 39H12.4185L10.4877 35.8879H9.56768V39H7.85262V30.8904H10.2151ZM10.0901 32.2988H9.56768V34.4909H10.1242C10.5028 34.4909 10.8095 34.4492 11.0442 34.3659C11.279 34.2826 11.4493 34.1577 11.5553 33.9911C11.6613 33.817 11.7143 33.6087 11.7143 33.3664C11.7143 33.109 11.6538 32.9045 11.5326 32.7531C11.419 32.5941 11.2411 32.4805 10.9988 32.4123C10.7641 32.3366 10.4612 32.2988 10.0901 32.2988ZM20.3141 39L19.7235 37.0691H16.7704L16.1798 39H14.3285L17.1907 30.8563H19.2919L22.1655 39H20.3141ZM18.724 33.7412C18.6862 33.6125 18.6369 33.4497 18.5764 33.2528C18.5158 33.056 18.4552 32.8553 18.3946 32.6509C18.3341 32.4464 18.2848 32.2685 18.247 32.117C18.2091 32.2685 18.1561 32.4578 18.088 32.6849C18.0274 32.9045 17.9668 33.1165 17.9062 33.321C17.8532 33.5179 17.8116 33.6579 17.7813 33.7412L17.202 35.6267H19.3146L18.724 33.7412ZM26.2252 39H22.5338V38.0232L23.522 37.5689V32.3215L22.5338 31.8672V30.8904H26.2252V31.8672L25.237 32.3215V37.5689L26.2252 38.0232V39ZM34.7968 39H32.616L29.0837 32.8667H29.0383C29.0458 33.056 29.0534 33.2491 29.061 33.4459C29.0685 33.6352 29.0761 33.8283 29.0837 34.0252C29.0988 34.2145 29.1102 34.4076 29.1178 34.6044C29.1253 34.7937 29.1329 34.9868 29.1405 35.1837V39H27.6071V30.8904H29.7765L33.2975 36.9669H33.3316C33.324 36.7776 33.3164 36.5921 33.3089 36.4104C33.3013 36.2211 33.2937 36.0356 33.2862 35.8538C33.2862 35.6645 33.2824 35.479 33.2748 35.2973C33.2672 35.108 33.2597 34.9187 33.2521 34.7294V30.8904H34.7968V39ZM39.8792 39H36.1879V38.0232L37.176 37.5689V32.3215L36.1879 31.8672V30.8904H39.8792V31.8672L38.8911 32.3215V37.5689L39.8792 38.0232V39ZM48.4508 39H46.2701L42.7377 32.8667H42.6923C42.6999 33.056 42.7074 33.2491 42.715 33.4459C42.7226 33.6352 42.7302 33.8283 42.7377 34.0252C42.7529 34.2145 42.7642 34.4076 42.7718 34.6044C42.7794 34.7937 42.7869 34.9868 42.7945 35.1837V39H41.2612V30.8904H43.4306L46.9516 36.9669H46.9856C46.9781 36.7776 46.9705 36.5921 46.9629 36.4104C46.9553 36.2211 46.9478 36.0356 46.9402 35.8538C46.9402 35.6645 46.9364 35.479 46.9288 35.2973C46.9213 35.108 46.9137 34.9187 46.9061 34.7294V30.8904H48.4508V39ZM53.5787 34.4454H56.793V38.6479C56.369 38.7918 55.926 38.9053 55.4641 38.9886C55.0098 39.0719 54.4911 39.1136 53.9081 39.1136C53.1054 39.1136 52.4202 38.9546 51.8523 38.6365C51.2919 38.3185 50.8641 37.8491 50.5688 37.2281C50.2811 36.6072 50.1372 35.8425 50.1372 34.9338C50.1372 34.0858 50.3 33.3513 50.6256 32.7304C50.9588 32.1095 51.4396 31.6286 52.0681 31.2879C52.6966 30.9472 53.4651 30.7768 54.3738 30.7768C54.8054 30.7768 55.2294 30.8222 55.6459 30.9131C56.0623 31.004 56.4409 31.1251 56.7817 31.2765L56.2138 32.6509C55.9639 32.5221 55.6799 32.4161 55.3619 32.3328C55.0439 32.2495 54.7107 32.2079 54.3624 32.2079C53.8626 32.2079 53.4273 32.3215 53.0562 32.5486C52.6928 32.7758 52.4088 33.0976 52.2044 33.5141C52.0075 33.923 51.9091 34.4076 51.9091 34.9679C51.9091 35.4979 51.981 35.9674 52.1249 36.3763C52.2687 36.7852 52.4959 37.107 52.8063 37.3417C53.1168 37.5689 53.5219 37.6825 54.0217 37.6825C54.1882 37.6825 54.3321 37.6787 54.4533 37.6711C54.582 37.656 54.6994 37.6408 54.8054 37.6257C54.9114 37.603 55.0136 37.584 55.112 37.5689V35.8765H53.5787V34.4454Z" fill="white"/>
</svg>
